<?xml version="1.0" encoding="UTF-8" standalone="no"?>
<!-- Created with Inkscape (http://www.inkscape.org/) -->

<svg
   width="600mm"
   height="400mm"
   viewBox="0 0 600 400"
   version="1.1"
   id="svg1"
   inkscape:version="1.3 (0e150ed6c4, 2023-07-21)"
   sodipodi:docname="BrushEngraving.svg"
   xmlns:inkscape="http://www.inkscape.org/namespaces/inkscape"
   xmlns:sodipodi="http://sodipodi.sourceforge.net/DTD/sodipodi-0.dtd"
   xmlns="http://www.w3.org/2000/svg"
   xmlns:svg="http://www.w3.org/2000/svg">
  <sodipodi:namedview
     id="namedview1"
     pagecolor="#ffffff"
     bordercolor="#111111"
     borderopacity="1"
     inkscape:showpageshadow="0"
     inkscape:pageopacity="0"
     inkscape:pagecheckerboard="1"
     inkscape:deskcolor="#d1d1d1"
     inkscape:document-units="mm"
     inkscape:zoom="2.9757807"
     inkscape:cx="425.93864"
     inkscape:cy="172.55976"
     inkscape:window-width="3440"
     inkscape:window-height="1377"
     inkscape:window-x="-8"
     inkscape:window-y="472"
     inkscape:window-maximized="1"
     inkscape:current-layer="layer1" />
  <defs
     id="defs1">
    <rect
       x="89.345345"
       y="251.87782"
       width="588.34857"
       height="139.72092"
       id="rect1" />
  </defs>
  <g
     inkscape:label="Layer 1"
     inkscape:groupmode="layer"
     id="layer1">
    <path
       style="font-size:40px;line-height:1.25;font-family:'Bebas Neue';-inkscape-font-specification:'Bebas Neue';letter-spacing:0px;word-spacing:0px;white-space:pre;display:inline;fill:#000000;fill-opacity:0.375;stroke:none;stroke-width:0.00264583"
       d="m 147.35491,16.893509 h 3.175 v 1.058333 h -2.01083 v 1.957917 h 1.59808 v 1.058333 h -1.59808 v 2.275417 h 2.01083 v 1.058333 h -3.175 z m 3.84176,0 h 1.66159 l 0.74083,5.30225 h 0.0212 l 0.74083,-5.30225 h 1.66158 v 7.408333 h -1.10066 v -5.609166 h -0.0212 l -0.84667,5.609166 h -0.97366 l -0.84667,-5.609166 h -0.0212 v 5.609166 h -1.016 z m 5.69384,0 h 1.16416 v 7.408333 h -1.16416 z m 2.03199,0 h 1.16417 v 6.35 h 1.91558 v 1.058333 h -3.07975 z m 5.334,0 h 1.75683 q 0.89958,0 1.31233,0.423333 0.41275,0.41275 0.41275,1.280584 v 0.296333 q 0,0.5715 -0.1905,0.931333 -0.17991,0.359834 -0.56091,0.518584 v 0.02117 q 0.86783,0.296334 0.86783,1.545167 v 0.635 q 0,0.85725 -0.45508,1.312333 -0.4445,0.4445 -1.31234,0.4445 h -1.83091 z m 1.61925,3.01625 q 0.34925,0 0.51858,-0.179917 0.17992,-0.179916 0.17992,-0.60325 v -0.41275 q 0,-0.402166 -0.14817,-0.582083 -0.13758,-0.179917 -0.4445,-0.179917 h -0.56092 v 1.957917 z m 0.21166,3.33375 q 0.30692,0 0.45509,-0.15875 0.14816,-0.169333 0.14816,-0.5715 v -0.645583 q 0,-0.508 -0.17991,-0.6985 -0.16934,-0.201084 -0.5715,-0.201084 h -0.51859 v 2.275417 z m 2.71991,1.100667 q -0.3175,0 -0.53975,-0.04233 v -1.058333 q 0.16934,0.04233 0.381,0.04233 0.34925,0 0.51859,-0.169333 0.16933,-0.179917 0.16933,-0.53975 v -5.68325 h 1.16417 v 5.6515 q 0,0.910167 -0.42334,1.354667 -0.41275,0.4445 -1.27,0.444499 z m 5.7785,-6.69925 q 0.20108,0.402166 0.20108,1.005416 v 3.894667 q 0,0.889 -0.45508,1.375833 -0.45509,0.486834 -1.31234,0.486834 -0.635,0 -1.05833,-0.275167 l -0.17992,0.4445 -0.635,-0.275167 0.30692,-0.751416 q -0.20108,-0.402167 -0.20108,-1.005417 v -3.894667 q 0,-0.889 0.45508,-1.375833 0.45508,-0.486833 1.31233,-0.486833 0.635,0 1.05834,0.275166 l 0.17991,-0.4445 0.635,0.275167 z m -2.16959,3.52425 1.17475,-2.899834 q -0.10583,-0.423333 -0.5715,-0.423333 -0.60325,0 -0.60325,0.73025 z m 1.2065,-1.143 -1.17475,2.899833 q 0.10584,0.423333 0.5715,0.423333 0.60325,0 0.60325,-0.73025 z m 1.94733,-3.132667 h 1.72509 q 0.89958,0 1.31233,0.423333 0.41275,0.41275 0.41275,1.280584 v 0.455083 q 0,1.153583 -0.762,1.4605 v 0.02117 q 0.42333,0.127 0.59267,0.518583 0.17991,0.391583 0.17991,1.04775 v 1.30175 q 0,0.3175 0.0212,0.518583 0.0212,0.1905 0.10583,0.381 h -1.18533 q -0.0635,-0.179916 -0.0847,-0.338666 -0.0212,-0.15875 -0.0212,-0.5715 v -1.354667 q 0,-0.508 -0.16934,-0.709083 -0.15875,-0.201084 -0.56091,-0.201084 h -0.40217 v 3.175 h -1.16417 z m 1.5875,3.175 q 0.34925,0 0.51859,-0.179917 0.17991,-0.179916 0.17991,-0.60325 v -0.5715 q 0,-0.402166 -0.14816,-0.582083 -0.13759,-0.179917 -0.4445,-0.179917 h -0.52917 v 2.116667 z m 2.67759,-3.175 h 1.4605 l 1.13241,4.434417 h 0.0212 v -4.434417 h 1.03716 v 7.408333 h -1.19591 l -1.397,-5.408083 h -0.0212 v 5.408083 h -1.03716 z"
       id="text2"
       aria-label="Emil BJØRN" />
    <path
       id="path552"
       style="display:inline;fill:none;fill-opacity:0.375;stroke:#000000;stroke-width:0.02;stroke-dasharray:none"
       d="m 248.00592,15.09039 h 4.35334 l 2.17666,3.7701 -2.17666,3.77009 m -10.88334,11.31029 h 4.35334 l 2.17666,3.7701 -2.17666,3.7701 m 2.17666,-18.85049 h 4.35334 l 2.17666,3.7701 -2.17666,3.7701 M 248.00592,7.55019 h 4.35334 l 2.17666,3.7701 -2.17666,3.7701 m -4.35334,22.62059 h 4.35334 l 2.17666,3.7701 -2.17666,3.77009 M 241.47592,18.86048 h 4.35334 l 2.17666,3.7701 -2.17666,3.77009 m -4.35334,-15.08038 h 4.35334 l 2.17666,3.77009 -2.17666,3.7701 m 2.17666,11.3103 h 4.35334 l 2.17666,3.7701 -2.17666,3.7701 M 241.47592,26.40067 h 4.35334 l 2.17666,3.7701 -2.17666,3.7701 M 241.47592,3.78009 h 4.35334 l 2.17666,3.7701 -2.17666,3.7701 m -111.01006,26.39068 2.17667,-3.7701 -2.17667,-3.7701 h -4.35333 l -2.17667,3.7701 m 2.17666,-18.85048 h 4.35334 l 2.17667,3.77009 -2.17667,3.7701 h -4.35334 m -6.53,-3.77009 h 4.35334 l 2.17666,3.77009 m 0,0 -2.17667,3.7701 m 6.53001,3.77009 2.17667,-3.77009 h 4.35333 l 2.17667,3.77009 -2.17667,3.7701 M 136.99586,3.78009 h 4.35334 l 2.17667,3.7701 -2.17667,3.7701 m -4.35334,7.54019 h 4.35334 l 2.17667,3.7701 -2.17667,3.7701 m -4.35334,-15.08039 h 4.35334 l 2.17667,3.7701 -2.17667,3.77009 m 34.82669,-7.54018 h 4.35333 m -17.41334,-10e-6 h 4.35334 m -17.41335,0 h 4.35334 m 13.06001,0 2.17666,3.77009 4.35334,10e-6 2.17666,-3.7701 -2.17666,-3.7701 h -4.35334 m 10.88334,3.77011 2.17667,3.77009 h 4.35334 l 2.17666,3.77009 -2.17666,3.77011 2.17666,3.77009 m 0,0 -2.17667,3.7701 m -13.06,-10e-6 2.17667,-3.77009 h 4.35333 l 2.17667,3.77009 -2.17667,3.7701 m -37.00335,-3.7701 h 4.35334 l 2.17666,3.7701 -2.17667,3.7701 M 143.52587,7.55019 h 4.35333 l 2.17667,3.7701 -2.17667,3.7701 h -4.35333 m 78.36004,0 h 4.35334 l 2.17666,3.77009 -2.17666,3.7701 m 2.17666,-3.7701 h 4.35335 l 2.17666,3.7701 -2.17666,3.7701 M 248.00592,0.01 h 4.35334 l 2.17666,3.7701 -2.17666,3.77009 m -17.41334,15.08039 h 4.35334 l 2.17666,3.7701 -2.17666,3.77009 m -4.35334,-15.08038 h 4.35334 l 2.17666,3.77009 -2.17666,3.7701 m 2.17666,18.85049 h 4.35334 l 2.17666,3.7701 -2.17666,3.7701 m -10.88334,-18.8505 h 4.35334 l 2.17666,3.7701 -2.17666,3.7701 M 234.94592,7.55019 h 4.35334 l 2.17666,3.7701 -2.17666,3.7701 m -10.88335,-3.7701 h 4.35335 l 2.17666,3.7701 -2.17666,3.77009 m -4.35335,15.08039 h 4.35335 l 2.17666,3.77009 -2.17666,3.7701 m -4.35335,-15.08038 h 4.35335 l 2.17666,3.77009 -2.17666,3.7701 M 228.41591,3.78009 h 4.35335 l 2.17666,3.7701 -2.17666,3.7701 m -10.88335,18.85048 h 4.35334 l 2.17666,3.7701 -2.17666,3.7701 M 221.88591,7.55019 h 4.35334 l 2.17666,3.7701 -2.17666,3.7701 m -4.35334,7.54019 h 4.35334 l 2.17666,3.7701 -2.17666,3.77009 M 202.2959,11.32029 h 4.35334 l 2.17666,3.7701 -2.17666,3.77009 m 2.17666,-3.77009 h 4.35335 l 2.17666,3.77009 -2.17666,3.7701 m 2.17666,-3.7701 h 4.35334 l 2.17666,3.7701 -2.17666,3.7701 m -4.35334,-15.08039 h 4.35334 l 2.17666,3.7701 -2.17666,3.77009 m -23.94336,-3.77009 h 4.35335 l 2.17666,3.77009 -2.17666,3.7701 m 15.23667,3.7701 h 4.35334 l 2.17666,3.77009 -2.17666,3.7701 M 215.35591,3.78009 h 4.35334 l 2.17666,3.7701 -2.17666,3.7701 m -23.94336,-3.7701 h 4.35335 l 2.17666,3.7701 -2.17666,3.7701 m 8.70666,15.08038 h 4.35335 l 2.17666,3.7701 -2.17666,3.7701 M 208.8259,7.55019 h 4.35335 l 2.17666,3.7701 -2.17666,3.7701 m -23.94336,-3.7701 h 4.35334 l 2.17666,3.7701 -2.17666,3.77009 m 15.23667,3.7701 h 4.35335 l 2.17666,3.7701 -2.17666,3.77009 M 189.23589,3.78009 h 4.35334 l 2.17666,3.7701 -2.17666,3.7701 m 8.70667,15.08039 h 4.35334 l 2.17666,3.77009 -2.17666,3.7701 M 202.2959,3.78009 h 4.35334 l 2.17666,3.7701 -2.17666,3.7701 m -23.94335,18.85048 h 4.35334 l 2.17666,3.7701 -2.17666,3.7701 m 8.70666,-7.5402 h 4.35335 l 2.17666,3.7701 -2.17666,3.7701 M 189.23589,26.40068 h 4.35334 l 2.17666,3.77009 -2.17666,3.7701 m 2.17666,-11.31029 h 4.35335 l 2.17666,3.7701 -2.17666,3.77009 M 189.23589,18.86048 h 4.35334 l 2.17666,3.7701 -2.17666,3.7701 M 182.70589,7.55019 h 4.35334 l 2.17666,3.7701 -2.17666,3.7701 m 15.23667,3.77009 h 4.35334 l 2.17666,3.7701 -2.17666,3.7701 M 176.17588,3.78009 h 4.35334 l 2.17667,3.7701 -2.17667,3.7701 m -13.06,22.62058 2.17666,-3.7701 -2.17666,-3.77009 h -4.35334 l -2.17667,3.77009 m 8.70667,0 h 4.35334 l 2.17667,3.7701 -2.17667,3.7701 M 163.11588,3.78009 h 4.35334 l 2.17666,3.7701 -2.17666,3.7701 m -10.88334,18.85048 h 4.35333 l 2.17667,3.7701 -2.17667,3.7701 M 156.58588,7.55019 h 4.35333 l 2.17667,3.7701 -2.17667,3.7701 h -4.35333 l -2.17667,-3.7701 m -4.35334,-7.5402 h 4.35334 l 2.17667,3.7701 -2.17667,3.7701 m 0,22.62058 2.17667,-3.7701 -2.17667,-3.77009 h -4.35333 l -2.17667,3.77009" />
    <rect
       style="display:none;fill:none;fill-opacity:0.375;stroke:#000000;stroke-width:0.02;stroke-dasharray:none;stroke-opacity:1"
       id="rect93"
       width="120"
       height="22"
       x="120.50002"
       y="9.731041" />
    <rect
       style="display:none;fill:none;fill-opacity:0.375;stroke:#000000;stroke-width:0.02;stroke-dasharray:none;stroke-opacity:1"
       id="rect553"
       width="120"
       height="22"
       x="0.50000024"
       y="9.731041" />
  </g>
</svg>
