<?xml version="1.0" encoding="UTF-8" standalone="no"?>
<!-- Created with Inkscape (http://www.inkscape.org/) -->

<svg
   width="210mm"
   height="297mm"
   viewBox="0 0 210 297"
   version="1.1"
   id="svg1"
   inkscape:version="1.3 (0e150ed6c4, 2023-07-21)"
   sodipodi:docname="KarkludHolder.svg"
   xmlns:inkscape="http://www.inkscape.org/namespaces/inkscape"
   xmlns:sodipodi="http://sodipodi.sourceforge.net/DTD/sodipodi-0.dtd"
   xmlns="http://www.w3.org/2000/svg"
   xmlns:svg="http://www.w3.org/2000/svg">
  <sodipodi:namedview
     id="namedview1"
     pagecolor="#ffffff"
     bordercolor="#111111"
     borderopacity="1"
     inkscape:showpageshadow="0"
     inkscape:pageopacity="0"
     inkscape:pagecheckerboard="1"
     inkscape:deskcolor="#d1d1d1"
     inkscape:document-units="mm"
     inkscape:zoom="0.74394518"
     inkscape:cx="375.69973"
     inkscape:cy="597.49026"
     inkscape:window-width="3440"
     inkscape:window-height="1377"
     inkscape:window-x="-8"
     inkscape:window-y="472"
     inkscape:window-maximized="1"
     inkscape:current-layer="layer1" />
  <defs
     id="defs1">
    <inkscape:path-effect
       effect="fillet_chamfer"
       id="path-effect2"
       is_visible="true"
       lpeversion="1"
       nodesatellites_param="F,0,0,1,0,0,0,1 @ F,0,0,1,0,0,0,1 @ F,0,0,1,0,0,0,1 @ F,0,0,1,0,0,0,1 @ F,0,0,1,0,5.6225164,0,1 @ F,0,0,1,0,2.5096248,0,1 @ F,0,0,1,0,0,0,1 @ F,0,0,1,0,0,0,1"
       radius="0"
       unit="px"
       method="auto"
       mode="F"
       chamfer_steps="1"
       flexible="false"
       use_knot_distance="true"
       apply_no_radius="true"
       apply_with_radius="true"
       only_selected="false"
       hide_knots="false" />
  </defs>
  <g
     inkscape:label="Layer 1"
     inkscape:groupmode="layer"
     id="layer1">
    <path
       id="path1"
       style="color:#000000;fill:#000000;stroke-width:1.55239;-inkscape-stroke:none"
       d="m -444.2803,18.330115 c -14.21704,0 -23.77756,4.394697 -29.43748,9.40511 -2.89974,2.566979 -4.81949,5.439544 -6.00065,7.631576 -1.01949,1.891951 0.10084,4.023951 2.17401,4.599718 l 2.7926,0.776181 c 4.64473,1.28994 9.37019,0.343971 11.32437,-1.385963 2.75969,-2.442998 7.9674,-5.503023 19.14715,-5.503023 h 16.13028 116.09886 16.13029 c 11.17976,0 16.38747,3.060025 19.14715,5.503023 1.95418,1.729934 6.68016,2.675903 11.32489,1.385963 l 2.79208,-0.776181 c 2.07318,-0.575767 3.19351,-2.707767 2.17402,-4.599718 -1.18118,-2.192032 -3.10041,-5.064597 -6.00015,-7.631576 -5.65991,-5.010413 -15.22095,-9.40511 -29.43799,-9.40511 h -16.13029 -116.09886 z" />
    <rect
       style="fill:#808000;stroke-width:13.9351;stroke-dasharray:none"
       id="rect2"
       width="14.225959"
       height="206.84099"
       x="-442.37582"
       y="21.804398" />
    <rect
       style="fill:#808000;stroke-width:13.9351;stroke-dasharray:none"
       id="rect3"
       width="14.225959"
       height="206.84099"
       x="-312.05103"
       y="21.804398" />
    <path
       id="path4"
       style="color:#000000;fill:#000000;stroke-width:1.55239;-inkscape-stroke:none"
       d="m 35.820318,46.023444 c -14.21704,0 -23.77807,4.394697 -29.4379901,9.405111 -2.89974,2.566978 -4.81898,5.439544 -6.00015995,7.631575 -1.0194703,1.891951 0.10085,4.023951 2.17402995,4.59972 l 2.7926,0.776179 c 4.6447301,1.28994 9.3701901,0.34449 11.3243701,-1.385444 2.75969,-2.442998 7.9674,-5.503023 19.14715,-5.503023 h 16.13028 116.098872 16.13028 c 11.17976,0 16.38747,3.060025 19.14715,5.503023 1.95418,1.729934 6.67964,2.675384 11.32437,1.385444 l 2.7926,-0.776179 c 2.07318,-0.575769 3.19351,-2.707769 2.17403,-4.59972 -1.18119,-2.192031 -3.10093,-5.064597 -6.00067,-7.631575 -5.65992,-5.010414 -15.22044,-9.405111 -29.43748,-9.405111 H 168.04947 51.950598 Z" />
    <path
       id="path3"
       style="color:#000000;fill:#000000;stroke-width:1.55239;-inkscape-stroke:none"
       d="m 35.820315,23.011658 c -14.21703,0 -23.778065,4.394697 -29.4379873,9.405111 -2.89974,2.566978 -4.818976,5.439545 -6.00015895,7.631575 -1.0194701,1.891951 0.100844,4.023951 2.17402995,4.59972 l 2.792595,0.77618 c 4.644735,1.28994 9.3701963,0.344489 11.3243763,-1.385445 2.759684,-2.442998 7.967395,-5.503023 19.147145,-5.503023 h 16.13029 116.098865 16.13028 c 11.17976,0 16.38747,3.060025 19.14715,5.503023 1.95418,1.729934 6.67964,2.675385 11.32437,1.385445 l 2.7926,-0.77618 c 2.07318,-0.575769 3.19351,-2.707769 2.17403,-4.59972 -1.18119,-2.19203 -3.10093,-5.064597 -6.00067,-7.631575 -5.65992,-5.010414 -15.22044,-9.405111 -29.43748,-9.405111 H 168.04947 51.950605 Z" />
    <path
       id="path5"
       style="color:#000000;fill:#000000;stroke-width:1.55239;-inkscape-stroke:none"
       d="m 35.820315,0 c -14.21701,0 -23.77756,4.394704 -29.43748,9.405111 -2.89973,2.566977 -4.81949,5.439544 -6.00065995,7.631575 -1.0194904,1.891948 0.10086,4.023952 2.17401995,4.599719 l 2.7926,0.77618 c 4.64472,1.289939 9.3702,0.343971 11.32437,-1.385962 2.75969,-2.442995 7.96742,-5.503023 19.14715,-5.503023 h 1.9048 V 6.649206 h 14.22549 V 15.5236 H 168.04946 V 6.649206 h 14.22601 V 15.5236 h 1.90427 c 11.17975,0 16.38748,3.060028 19.14716,5.503023 1.95417,1.729933 6.68016,2.675901 11.32489,1.385962 l 2.79207,-0.77618 c 2.07318,-0.575767 3.19351,-2.707771 2.17403,-4.599719 -1.18119,-2.192031 -3.10042,-5.064598 -6.00015,-7.631575 C 207.95783,4.394704 198.39677,0 184.17974,0 H 168.04946 51.950605 Z" />
    <g
       id="g13"
       transform="rotate(90,244.36856,21.021148)">
      <rect
         style="fill:#808000;stroke-width:13.9351;stroke-dasharray:none"
         id="rect7"
         width="14.225959"
         height="206.84099"
         x="302.62823"
         y="58.54871" />
      <rect
         style="fill:#808000;stroke-width:13.9351;stroke-dasharray:none"
         id="rect8"
         width="14.225959"
         height="206.84099"
         x="323.18475"
         y="58.54871" />
      <rect
         style="fill:#808000;stroke-width:13.9351;stroke-dasharray:none"
         id="rect9"
         width="14.225959"
         height="206.84099"
         x="343.74124"
         y="58.54871" />
      <rect
         style="fill:#808000;stroke-width:13.9351;stroke-dasharray:none"
         id="rect10"
         width="14.225959"
         height="206.84099"
         x="364.29776"
         y="58.54871" />
      <rect
         style="fill:#808000;stroke-width:13.9351;stroke-dasharray:none"
         id="rect11"
         width="14.225959"
         height="206.84099"
         x="384.85425"
         y="58.54871" />
      <rect
         style="fill:#808000;stroke-width:13.9351;stroke-dasharray:none"
         id="rect12"
         width="14.225959"
         height="206.84099"
         x="405.41077"
         y="58.54871" />
    </g>
    <rect
       style="fill:#808000;stroke-width:10;stroke-dasharray:none"
       id="rect13"
       width="250"
       height="110"
       x="0"
       y="209.12158"
       rx="10"
       ry="10" />
  </g>
</svg>
